<svg id="Layer_1" data-name="Layer 1" xmlns="http://www.w3.org/2000/svg" viewBox="0 0 305 65"><defs><style>.cls-1{fill:#118ab2;}.cls-2{fill:#ef476f;}</style></defs><path class="cls-1" d="M33.17,3.52a24.12,24.12,0,0,1,9.62,2,25.42,25.42,0,0,1,8,5.29,25,25,0,0,1,5.31,7.91,24,24,0,0,1,2,9.6,24.29,24.29,0,0,1-2,9.7,25.18,25.18,0,0,1-5.31,8,24.93,24.93,0,0,1-7.93,5.29,24.24,24.24,0,0,1-9.64,2v8.28H8.35v-58Z"/><path class="cls-1" d="M64.62,61.49v-58H89.45v58Z"/><path class="cls-2" d="M124.81,65a32.27,32.27,0,0,1-8.2-1.07,31.76,31.76,0,0,1-14.51-8.38h0a32.42,32.42,0,0,1,.08-46.09,32,32,0,0,1,14.55-8.38,32.52,32.52,0,0,1,31.39,8.54l1.94,2L129,32.51,149.9,53.37l-2,1.94A32.68,32.68,0,0,1,124.81,65ZM125,5.5a26.85,26.85,0,0,0-6.88.9,26.55,26.55,0,0,0-12.07,7,27.13,27.13,0,0,0-7.13,12.23A26.87,26.87,0,0,0,106,51.67h0a26.16,26.16,0,0,0,12,6.94,26.94,26.94,0,0,0,24-5.33L121.26,32.5l20.93-20.85A26.51,26.51,0,0,0,132,6.41,27.57,27.57,0,0,0,125,5.5Z"/><path class="cls-1" d="M177.63,3.52a24.12,24.12,0,0,1,9.62,2,25.26,25.26,0,0,1,7.94,5.29,24.86,24.86,0,0,1,5.32,7.91,24,24,0,0,1,2,9.6,24.29,24.29,0,0,1-2,9.7,25,25,0,0,1-5.32,8,24.78,24.78,0,0,1-7.92,5.29,24.24,24.24,0,0,1-9.64,2v8.28H152.8v-58Z"/><path class="cls-1" d="M209.08,61.49v-58h24.83v58Z"/><path class="cls-1" d="M296.65,3.52l-19.2,29,19.2,29H240.54l19.2-29-19.2-29Z"/></svg>